<?xml version="1.0" encoding="UTF-8" standalone="no"?>
<!-- Created with Inkscape (http://www.inkscape.org/) -->

<svg
   version="1.1"
   id="svg1"
   width="297"
   height="57"
   viewBox="0 0 297 57"
   sodipodi:docname="CROSSMARK_Color_horizontal.eps"
   xmlns:inkscape="http://www.inkscape.org/namespaces/inkscape"
   xmlns:sodipodi="http://sodipodi.sourceforge.net/DTD/sodipodi-0.dtd"
   xmlns="http://www.w3.org/2000/svg"
   xmlns:svg="http://www.w3.org/2000/svg">
  <defs
     id="defs1">
    <linearGradient
       x1="0"
       y1="0"
       x2="1"
       y2="0"
       gradientUnits="userSpaceOnUse"
       gradientTransform="matrix(0,-371.2,371.2,0,1113.75,376.25)"
       spreadMethod="pad"
       id="linearGradient3">
      <stop
         style="stop-opacity:1;stop-color:#ffffff"
         offset="0"
         id="stop2" />
      <stop
         style="stop-opacity:1;stop-color:#b9bbb9"
         offset="1"
         id="stop3" />
    </linearGradient>
    <clipPath
       clipPathUnits="userSpaceOnUse"
       id="clipPath3">
      <path
         d="m 23.75,423.75 h 2180 c 11.05,0 20,-8.953 20,-20 v -380 c 0,-11.0469 -8.95,-20 -20,-20 h -2180 c -11.0469,0 -20,8.9531 -20,20 v 380 c 0,11.047 8.9531,20 20,20 z"
         id="path3" />
    </clipPath>
  </defs>
  <sodipodi:namedview
     id="namedview1"
     pagecolor="#ffffff"
     bordercolor="#000000"
     borderopacity="0.25"
     inkscape:showpageshadow="2"
     inkscape:pageopacity="0.0"
     inkscape:pagecheckerboard="0"
     inkscape:deskcolor="#d1d1d1">
    <inkscape:page
       x="0"
       y="0"
       inkscape:label="1"
       id="page1"
       width="297"
       height="57"
       margin="0"
       bleed="0" />
  </sodipodi:namedview>
  <g
     id="g1"
     inkscape:groupmode="layer"
     inkscape:label="1">
    <g
       id="group-R5">
      <path
         id="path2"
         d="m 23.75,423.75 h 2180 c 11.05,0 20,-8.953 20,-20 v -380 c 0,-11.0469 -8.95,-20 -20,-20 h -2180 c -11.0469,0 -20,8.9531 -20,20 v 380 c 0,11.047 8.9531,20 20,20"
         style="fill:url(#linearGradient3);fill-opacity:1;fill-rule:nonzero;stroke:none"
         transform="matrix(0.13333333,0,0,-0.13333333,0,57)"
         clip-path="url(#clipPath3)" />
      <path
         id="path4"
         d="m 23.75,423.75 h 2180 c 11.05,0 20,-8.953 20,-20 v -380 c 0,-11.0469 -8.95,-20 -20,-20 h -2180 c -11.0469,0 -20,8.9531 -20,20 v 380 c 0,11.047 8.9531,20 20,20 z"
         style="fill:none;stroke:#848183;stroke-width:7.5;stroke-linecap:butt;stroke-linejoin:miter;stroke-miterlimit:10;stroke-dasharray:none;stroke-opacity:1"
         transform="matrix(0.13333333,0,0,-0.13333333,0,57)" />
      <path
         id="path5"
         d="m 629.25,254.949 c -0.957,3.758 -2.367,7.383 -4.199,10.801 -1.719,3.262 -4.024,6.176 -6.801,8.602 -2.941,2.492 -6.34,4.39 -10,5.597 -4.187,1.403 -8.582,2.078 -13,2 -6.508,0.16 -12.945,-1.355 -18.699,-4.398 -5.129,-2.793 -9.52,-6.77 -12.801,-11.602 -3.379,-5.066 -5.848,-10.683 -7.301,-16.597 -3.176,-12.469 -3.176,-25.536 0,-38 1.442,-5.954 3.914,-11.606 7.301,-16.704 3.27,-4.867 7.66,-8.878 12.801,-11.699 5.754,-3.043 12.191,-4.558 18.699,-4.398 4.848,-0.09 9.656,0.867 14.102,2.801 3.808,1.832 7.211,4.418 10,7.597 2.945,3.317 5.25,7.149 6.796,11.301 1.844,4.316 3.122,8.855 3.801,13.5 h 23.199 c -0.398,-7.648 -2.16,-15.168 -5.199,-22.199 -2.851,-6.539 -6.965,-12.449 -12.097,-17.403 -5.153,-4.925 -11.239,-8.769 -17.903,-11.296 -7.219,-2.731 -14.883,-4.086 -22.597,-4 -9.403,-0.161 -18.723,1.753 -27.301,5.597 -7.676,3.629 -14.492,8.844 -20,15.301 -5.676,6.645 -10.02,14.316 -12.801,22.602 -5.961,17.812 -5.961,37.086 0,54.898 2.781,8.281 7.129,15.953 12.801,22.602 5.519,6.468 12.332,11.714 20,15.398 8.558,3.91 17.887,5.859 27.301,5.699 7.281,0.063 14.531,-0.984 21.5,-3.097 6.433,-1.934 12.464,-5.016 17.796,-9.102 5.075,-3.941 9.293,-8.875 12.403,-14.5 3.347,-6.18 5.359,-12.992 5.898,-20 H 629.25 v 0.699"
         style="fill:#454749;fill-opacity:1;fill-rule:nonzero;stroke:none"
         transform="matrix(0.13333333,0,0,-0.13333333,0,57)" />
      <path
         id="path6"
         d="m 671.75,298.148 h 22 v -50 c 2.93,4.676 7.031,8.504 11.898,11.102 5.516,3.109 11.774,4.664 18.102,4.5 9.258,0.52 18.367,-2.48 25.5,-8.398 6.617,-6.61 10.016,-15.778 9.301,-25.102 v -67.5 h -22.199 v 61 c 0.296,5.992 -1.426,11.91 -4.903,16.801 -3.761,3.762 -9,5.664 -14.301,5.199 -3.437,0.074 -6.851,-0.609 -10,-2 -2.835,-1.27 -5.363,-3.148 -7.398,-5.5 -2.105,-2.441 -3.734,-5.258 -4.801,-8.301 -1.129,-3.211 -1.703,-6.594 -1.699,-10 v -57.898 h -21.5 v 136.097"
         style="fill:#454749;fill-opacity:1;fill-rule:nonzero;stroke:none"
         transform="matrix(0.13333333,0,0,-0.13333333,0,57)" />
      <path
         id="path7"
         d="m 848.25,220.148 c -0.234,3.426 -0.977,6.793 -2.199,10 -1.11,3.047 -2.77,5.86 -4.903,8.301 -2.113,2.211 -4.625,4.012 -7.398,5.301 -3.117,1.496 -6.543,2.25 -10,2.199 -3.434,0 -6.832,-0.679 -10,-2 -3.02,-1.261 -5.742,-3.133 -8,-5.5 -2.258,-2.418 -4.055,-5.23 -5.301,-8.301 -1.328,-3.171 -2.074,-6.558 -2.199,-10 h 50.5 z m -50.5,-14.199 c -0.012,-3.722 0.527,-7.429 1.602,-11 0.98,-3.383 2.613,-6.539 4.796,-9.301 2.219,-2.718 5.024,-4.906 8.204,-6.398 3.703,-1.68 7.734,-2.5 11.796,-2.398 5.403,-0.258 10.754,1.171 15.301,4.097 4.098,3.086 7.11,7.395 8.602,12.301 h 20.5 c -2.043,-9.977 -7.754,-18.824 -16,-24.801 -4,-2.902 -8.461,-5.097 -13.199,-6.5 -5.063,-1.5 -10.321,-2.242 -15.602,-2.199 -6.863,0.004 -13.66,1.363 -20,4 -5.73,2.195 -10.918,5.605 -15.199,10 -4.211,4.723 -7.379,10.273 -9.301,16.301 -2.141,6.758 -3.187,13.812 -3.102,20.898 -0.058,6.809 1.059,13.574 3.301,20 2.254,6.086 5.649,11.688 10,16.5 8.434,10.274 21.012,16.25 34.301,16.301 7.223,0.133 14.367,-1.516 20.801,-4.801 5.98,-3.086 11.203,-7.457 15.301,-12.801 4.109,-5.46 7.097,-11.679 8.796,-18.296 1.84,-6.981 2.317,-14.247 1.403,-21.403 H 797.75 v -0.5"
         style="fill:#454749;fill-opacity:1;fill-rule:nonzero;stroke:none"
         transform="matrix(0.13333333,0,0,-0.13333333,0,57)" />
      <path
         id="path8"
         d="m 952.852,227.852 c -0.465,5.398 -3.098,10.378 -7.301,13.796 -4.367,3.2 -9.692,4.825 -15.102,4.602 -3.019,-0.027 -6.015,-0.5 -8.898,-1.398 -3.285,-1.039 -6.274,-2.86 -8.699,-5.301 -2.981,-3.082 -5.266,-6.766 -6.704,-10.801 -1.878,-5.875 -2.691,-12.039 -2.398,-18.199 -0.004,-4.11 0.465,-8.203 1.398,-12.199 0.883,-3.844 2.442,-7.504 4.602,-10.801 2.074,-3.156 4.844,-5.789 8.102,-7.699 3.656,-2.047 7.808,-3.051 12,-2.903 5.808,-0.207 11.461,1.918 15.699,5.903 4.371,4.461 7.09,10.281 7.699,16.5 h 21.699 c -1.191,-11.211 -6.332,-21.633 -14.5,-29.403 -8.433,-6.902 -19.109,-10.461 -30,-10 -6.863,-0.086 -13.672,1.242 -20,3.903 -6.301,2.164 -12.015,5.757 -16.699,10.5 -4.148,4.668 -7.281,10.152 -9.199,16.097 -2.11,6.457 -3.156,13.211 -3.102,20 -0.058,7.012 0.953,13.992 3,20.699 1.914,6.211 5.078,11.965 9.301,16.903 4.137,4.808 9.297,8.637 15.102,11.199 6.691,3.02 13.957,4.555 21.296,4.5 5.512,0.027 10.997,-0.715 16.301,-2.199 4.922,-1.367 9.563,-3.602 13.699,-6.602 4.086,-2.906 7.497,-6.66 10,-11 2.68,-4.863 4.25,-10.258 4.602,-15.801 h -21.898 v -0.296"
         style="fill:#454749;fill-opacity:1;fill-rule:nonzero;stroke:none"
         transform="matrix(0.13333333,0,0,-0.13333333,0,57)" />
      <path
         id="path9"
         d="m 992.75,298.148 h 21.7 v -77.097 l 39.1,40 h 26.6 l -37.6,-36.102 41.2,-62.5 h -26.4 l -30,47.699 -12.9,-12.5 v -35.199 h -21.7 v 135.699"
         style="fill:#454749;fill-opacity:1;fill-rule:nonzero;stroke:none"
         transform="matrix(0.13333333,0,0,-0.13333333,0,57)" />
      <path
         id="path10"
         d="m 1137.35,260.648 h 16.4 v 8.204 c -0.23,5.046 0.44,10.093 2,14.898 1.24,3.438 3.34,6.504 6.1,8.898 2.48,2.079 5.44,3.52 8.6,4.204 3.29,0.675 6.64,1.011 10,1 5.1,0.187 10.21,-0.25 15.2,-1.301 v -16.903 c -1.48,0.411 -2.98,0.711 -4.5,0.903 -1.87,0.105 -3.73,0.105 -5.6,0 -2.65,0.062 -5.27,-0.668 -7.5,-2.102 -2.35,-2.031 -3.52,-5.117 -3.1,-8.199 v -10 h 18.8 v -16.199 h -18.4 v -82.102 h -21.6 v 82.602 h -16.2 v 16.097 h -0.2"
         style="fill:#454749;fill-opacity:1;fill-rule:nonzero;stroke:none"
         transform="matrix(0.13333333,0,0,-0.13333333,0,57)" />
      <path
         id="path11"
         d="m 1251.85,176.852 c 4.36,-0.11 8.67,0.925 12.5,3 3.46,1.98 6.44,4.714 8.7,8 2.31,3.375 4,7.132 5,11.097 2.15,8.262 2.15,16.938 0,25.199 -0.98,3.973 -2.67,7.735 -5,11.102 -2.28,3.238 -5.26,5.938 -8.7,7.898 -7.87,4.059 -17.23,4.059 -25.1,0 -3.44,-1.96 -6.42,-4.66 -8.7,-7.898 -2.33,-3.367 -4.02,-7.129 -5,-11.102 -2.15,-8.261 -2.15,-16.937 0,-25.199 1,-3.965 2.69,-7.722 5,-11.097 2.26,-3.286 5.24,-6.02 8.7,-8 3.86,-2.094 8.21,-3.129 12.6,-3 z m 0,-17.102 c -7.19,-0.129 -14.33,1.199 -21,3.898 -5.91,2.411 -11.22,6.063 -15.6,10.704 -4.44,4.668 -7.85,10.222 -10,16.296 -4.43,13.512 -4.43,28.09 0,41.602 2.15,6.074 5.56,11.629 10,16.301 4.38,4.637 9.7,8.285 15.6,10.699 13.52,5.188 28.48,5.188 42,0 5.9,-2.418 11.22,-6.066 15.6,-10.699 4.44,-4.672 7.85,-10.227 10,-16.301 4.43,-13.512 4.43,-28.086 0,-41.602 -2.15,-6.074 -5.56,-11.628 -10,-16.296 -4.39,-4.606 -9.71,-8.219 -15.6,-10.602 -6.66,-2.734 -13.8,-4.094 -21,-4"
         style="fill:#454749;fill-opacity:1;fill-rule:nonzero;stroke:none"
         transform="matrix(0.13333333,0,0,-0.13333333,0,57)" />
      <path
         id="path12"
         d="m 1319.55,260.648 h 20 v -19 c 0.71,2.821 1.96,5.473 3.7,7.801 1.92,2.59 4.17,4.91 6.7,6.903 2.63,2.089 5.57,3.777 8.7,5 3.18,1.285 6.57,1.929 10,1.898 h 5.2 2.9 v -20.898 l -4.7,0.699 h -4.7 c -3.45,-0.035 -6.86,-0.781 -10,-2.199 -3.29,-1.493 -6.2,-3.715 -8.5,-6.5 -2.35,-3.188 -4.08,-6.782 -5.1,-10.602 -1.47,-4.656 -2.18,-9.52 -2.1,-14.398 v -46.704 h -21.7 v 98 h -0.4"
         style="fill:#454749;fill-opacity:1;fill-rule:nonzero;stroke:none"
         transform="matrix(0.13333333,0,0,-0.13333333,0,57)" />
      <path
         id="path13"
         d="m 1525.45,162.449 h -21.7 v 13.699 c -2.75,-5.019 -6.88,-9.148 -11.9,-11.898 -4.88,-2.891 -10.43,-4.445 -16.1,-4.5 -10.34,-0.855 -20.54,2.789 -28,10 -6.4,8.254 -9.5,18.59 -8.7,29 v 61.898 h 21.7 v -60 c -0.64,-6.46 1.1,-12.933 4.9,-18.199 3.65,-3.687 8.72,-5.621 13.9,-5.301 3.91,-0.121 7.79,0.594 11.4,2.102 2.87,1.262 5.41,3.18 7.4,5.602 1.98,2.496 3.38,5.398 4.1,8.5 0.85,3.402 1.28,6.89 1.3,10.398 v 57 h 21.7 v -98.199 -0.102"
         style="fill:#454749;fill-opacity:1;fill-rule:nonzero;stroke:none"
         transform="matrix(0.13333333,0,0,-0.13333333,0,57)" />
      <path
         id="path14"
         d="m 1624.45,211.449 c 0.01,4.36 -0.56,8.696 -1.7,12.903 -1.04,3.964 -2.77,7.722 -5.1,11.097 -2.26,3.203 -5.19,5.867 -8.6,7.801 -3.61,1.996 -7.68,3 -11.8,2.898 -8.03,0.504 -15.77,-3.066 -20.6,-9.5 -4.95,-7.476 -7.37,-16.343 -6.9,-25.296 -0.05,-4.664 0.56,-9.309 1.8,-13.801 1.06,-3.953 2.9,-7.66 5.4,-10.903 2.33,-2.972 5.26,-5.425 8.6,-7.199 3.62,-1.851 7.64,-2.777 11.7,-2.699 4.36,-0.145 8.68,0.891 12.5,3 3.38,1.977 6.28,4.672 8.5,7.898 2.25,3.336 3.84,7.071 4.7,11 0.99,4.196 1.5,8.493 1.5,12.801 z m -75.6,49.199 h 20.5 v -13.296 c 2.72,5.418 7.2,9.753 12.7,12.296 5.56,2.497 11.6,3.758 17.7,3.704 6.89,0.117 13.72,-1.282 20,-4.102 5.56,-2.586 10.46,-6.418 14.3,-11.199 3.88,-4.934 6.76,-10.571 8.5,-16.602 1.93,-6.488 2.91,-13.226 2.9,-20 0,-6.488 -0.87,-12.945 -2.6,-19.199 -1.58,-5.898 -4.22,-11.453 -7.8,-16.398 -7.17,-10.168 -18.86,-16.18 -31.3,-16.102 -3.35,-0.047 -6.7,0.223 -10,0.801 -3.13,0.578 -6.19,1.515 -9.1,2.801 -2.9,1.226 -5.63,2.843 -8.1,4.796 -2.45,1.922 -4.55,4.258 -6.2,6.903 v 0 -49 h -21.7 v 134.597 h 0.2"
         style="fill:#454749;fill-opacity:1;fill-rule:nonzero;stroke:none"
         transform="matrix(0.13333333,0,0,-0.13333333,0,57)" />
      <path
         id="path15"
         d="m 1681.25,210.551 c -0.01,-4.188 0.53,-8.356 1.6,-12.403 0.98,-3.859 2.64,-7.515 4.9,-10.796 2.21,-3.157 5.12,-5.758 8.5,-7.602 7.73,-3.922 16.87,-3.922 24.6,0 3.41,1.984 6.31,4.723 8.5,8 2.25,3.395 3.91,7.148 4.9,11.102 1.07,4.113 1.6,8.347 1.6,12.597 0.54,9.082 -2.04,18.078 -7.3,25.5 -4.82,6.074 -12.26,9.461 -20,9.102 -4.47,0.152 -8.9,-0.918 -12.8,-3.102 -3.45,-2.043 -6.39,-4.847 -8.6,-8.199 -2.25,-3.48 -3.84,-7.344 -4.7,-11.398 -0.86,-4.211 -1.26,-8.504 -1.2,-12.801 z m 75.6,-48.102 h -20.5 v 13.301 c -2.68,-5.344 -7.13,-9.586 -12.6,-12 -5.57,-2.473 -11.6,-3.73 -17.7,-3.699 -6.89,-0.121 -13.72,1.281 -20,4.097 -5.55,2.563 -10.44,6.36 -14.3,11.102 -3.9,4.918 -6.79,10.559 -8.5,16.602 -1.96,6.687 -2.94,13.628 -2.9,20.597 -0.18,7.821 1.04,15.61 3.6,23 2.19,5.965 5.6,11.414 10,16 3.82,4.055 8.5,7.199 13.7,9.199 5.01,1.93 10.33,2.911 15.7,2.903 3.12,0.008 6.23,-0.258 9.3,-0.801 3.13,-0.582 6.18,-1.52 9.1,-2.801 2.9,-1.238 5.62,-2.851 8.1,-4.801 2.45,-1.921 4.55,-4.257 6.2,-6.898 v 0 50 h 21.7 V 162.449 h -0.9"
         style="fill:#454749;fill-opacity:1;fill-rule:nonzero;stroke:none"
         transform="matrix(0.13333333,0,0,-0.13333333,0,57)" />
      <path
         id="path16"
         d="m 1841.05,211.75 c -3.68,-2.281 -7.87,-3.621 -12.2,-3.898 -4.8,-0.469 -9.6,-1.133 -14.4,-2 -2.27,-0.372 -4.51,-0.907 -6.7,-1.602 -2.04,-0.656 -3.97,-1.633 -5.7,-2.898 -1.67,-1.223 -3.01,-2.84 -3.9,-4.704 -0.99,-2.23 -1.47,-4.656 -1.4,-7.097 -0.07,-2.223 0.68,-4.391 2.1,-6.102 1.37,-1.636 3.08,-2.969 5,-3.898 2.06,-0.985 4.25,-1.66 6.5,-2 2.11,-0.371 4.25,-0.574 6.4,-0.602 2.63,0.008 5.24,0.309 7.8,0.903 2.79,0.621 5.46,1.703 7.9,3.199 2.44,1.484 4.55,3.461 6.2,5.801 1.73,2.562 2.6,5.609 2.5,8.699 v 16.097 z m 21.7,-27.398 c -0.16,-1.957 0.18,-3.918 1,-5.704 0.96,-1.261 2.53,-1.914 4.1,-1.699 h 2.3 c 1,-0.105 2,-0.105 3,0 v -15 l -2.9,-0.898 -3.7,-0.801 -3.8,-0.602 h -3.2 c -3.85,-0.128 -7.65,0.805 -11,2.704 -3.15,2.132 -5.23,5.519 -5.7,9.296 -4.49,-4.273 -9.94,-7.394 -15.9,-9.097 -5.86,-1.856 -11.96,-2.832 -18.1,-2.903 -4.3,-0.015 -8.58,0.59 -12.7,1.801 -3.86,1.11 -7.48,2.903 -10.7,5.301 -3.12,2.359 -5.65,5.406 -7.4,8.898 -1.92,3.918 -2.88,8.239 -2.8,12.602 -0.22,5.137 0.92,10.242 3.3,14.801 2.09,3.66 5.09,6.722 8.7,8.898 3.79,2.192 7.91,3.746 12.2,4.602 4.47,0.933 9,1.668 13.6,2.199 3.7,0.723 7.44,1.254 11.2,1.602 3.18,0.242 6.32,0.777 9.4,1.597 2.43,0.582 4.67,1.789 6.5,3.5 1.69,1.965 2.55,4.512 2.4,7.102 0.09,2.422 -0.61,4.812 -2,6.801 -1.28,1.742 -2.96,3.144 -4.9,4.097 -2.08,0.981 -4.31,1.625 -6.6,1.903 -2.26,0.144 -4.54,0.144 -6.8,0 -5.26,0.211 -10.47,-1.11 -15,-3.801 -4.01,-2.617 -6.51,-7.016 -6.7,-11.801 h -21.8 c 0.16,5.574 1.74,11.012 4.6,15.801 2.54,4.047 5.95,7.465 10,10 4.31,2.597 9.05,4.39 14,5.301 5.36,1.507 10.85,2.476 16.4,2.898 4.81,0.008 9.6,-0.496 14.3,-1.5 4.44,-0.918 8.7,-2.574 12.6,-4.898 3.64,-2.196 6.72,-5.211 9,-8.801 2.37,-3.988 3.55,-8.567 3.4,-13.199 v -50.5 l -0.3,-0.5"
         style="fill:#454749;fill-opacity:1;fill-rule:nonzero;stroke:none"
         transform="matrix(0.13333333,0,0,-0.13333333,0,57)" />
      <path
         id="path17"
         d="m 1876.25,260.648 h 16.3 v 29.5 h 21.2 v -29.5 h 20 v -16.199 h -20 v -52.398 c -0.11,-1.965 -0.11,-3.938 0,-5.903 0.12,-1.476 0.56,-2.914 1.3,-4.199 0.72,-1.183 1.81,-2.097 3.1,-2.597 1.83,-0.661 3.76,-0.965 5.7,-0.903 h 4.6 c 1.55,0.074 3.1,0.309 4.6,0.699 v -16.699 l -7,-0.801 c -2.33,-0.128 -4.67,-0.128 -7,0 -4.65,-0.136 -9.3,0.403 -13.8,1.602 -3.11,0.855 -5.93,2.512 -8.2,4.801 -2.03,2.215 -3.42,4.949 -4,7.898 -0.73,3.559 -1.13,7.172 -1.2,10.801 v 57.801 h -16.3 v 16.097 h 0.7"
         style="fill:#454749;fill-opacity:1;fill-rule:nonzero;stroke:none"
         transform="matrix(0.13333333,0,0,-0.13333333,0,57)" />
      <path
         id="path18"
         d="m 2016.75,220.148 c -0.24,3.426 -0.98,6.793 -2.2,10 -1.11,3.047 -2.77,5.86 -4.9,8.301 -2.14,2.375 -4.72,4.313 -7.6,5.699 -3.12,1.497 -6.54,2.25 -10,2.204 -3.43,0 -6.83,-0.68 -10,-2 -3.02,-1.262 -5.74,-3.137 -8,-5.5 -2.26,-2.422 -4.06,-5.235 -5.3,-8.301 -1.33,-3.176 -2.07,-6.563 -2.2,-10 h 50.5 z m -50.5,-14.199 c -0.01,-3.722 0.53,-7.429 1.6,-11 0.98,-3.379 2.61,-6.539 4.8,-9.301 2.22,-2.718 5.02,-4.906 8.2,-6.398 3.7,-1.68 7.74,-2.496 11.8,-2.398 5.4,-0.258 10.75,1.171 15.3,4.097 4.1,3.086 7.11,7.395 8.6,12.301 h 20.5 c -2.04,-9.977 -7.75,-18.824 -16,-24.801 -4,-2.902 -8.46,-5.097 -13.2,-6.5 -4.97,-1.472 -10.12,-2.215 -15.3,-2.199 -7.02,-0.129 -13.99,1.164 -20.5,3.801 -5.68,2.277 -10.79,5.758 -15,10.199 -4.21,4.723 -7.38,10.273 -9.3,16.301 -2.14,6.758 -3.19,13.812 -3.1,20.898 -0.06,6.809 1.06,13.574 3.3,20 2.25,6.086 5.65,11.688 10,16.5 8.39,10.219 20.88,16.192 34.1,16.301 7.22,0.133 14.37,-1.516 20.8,-4.801 5.98,-3.086 11.2,-7.457 15.3,-12.801 4.11,-5.46 7.1,-11.679 8.8,-18.296 1.84,-6.981 2.31,-14.247 1.4,-21.403 h -72.2 l 0.1,-0.5"
         style="fill:#454749;fill-opacity:1;fill-rule:nonzero;stroke:none"
         transform="matrix(0.13333333,0,0,-0.13333333,0,57)" />
      <path
         id="path19"
         d="m 2071.35,193.75 c 0.07,-5.348 2.76,-10.316 7.2,-13.301 4.55,-2.629 9.74,-3.945 15,-3.801 2.3,-0.136 4.6,-0.136 6.9,0 2.5,0.293 4.95,0.899 7.3,1.801 2.17,0.809 4.09,2.149 5.6,3.903 1.5,1.89 2.22,4.293 2,6.699 -0.09,2.566 -1.16,5.004 -3,6.801 -2.11,1.914 -4.6,3.378 -7.3,4.296 -3.26,1.176 -6.6,2.114 -10,2.801 l -11.3,3.199 c -3.96,0.848 -7.86,1.918 -11.7,3.204 -3.57,1.183 -6.94,2.902 -10,5.097 -2.98,2.176 -5.41,5.02 -7.1,8.301 -1.9,3.852 -2.83,8.109 -2.7,12.398 -0.17,4.77 1.2,9.469 3.9,13.403 2.64,3.609 6.06,6.582 10,8.699 4.15,2.246 8.65,3.801 13.3,4.602 4.62,0.851 9.3,1.289 14,1.296 4.88,0.024 9.74,-0.515 14.5,-1.597 4.43,-1.012 8.66,-2.77 12.5,-5.199 3.74,-2.426 6.91,-5.633 9.3,-9.403 2.62,-4.246 4.22,-9.035 4.7,-14 h -22.6 c -0.63,4.278 -3.27,7.996 -7.1,10 -4.02,1.832 -8.39,2.754 -12.8,2.699 -1.8,0.11 -3.6,0.11 -5.4,0 -2.02,-0.226 -4,-0.695 -5.9,-1.398 -1.77,-0.633 -3.38,-1.66 -4.7,-3 -1.3,-1.41 -1.99,-3.281 -1.9,-5.199 -0.08,-2.477 0.94,-4.86 2.8,-6.5 2.11,-1.817 4.56,-3.207 7.2,-4.102 3.26,-1.172 6.6,-2.109 10,-2.801 l 11.8,-2.5 c 3.93,-0.867 7.8,-1.929 11.6,-3.199 3.57,-1.187 6.94,-2.906 10,-5.097 6.48,-4.567 10.24,-12.079 10,-20 0.16,-5.223 -1.23,-10.372 -4,-14.801 -2.54,-4.043 -5.96,-7.461 -10,-10 -4.4,-2.59 -9.2,-4.449 -14.2,-5.5 -5.06,-1.125 -10.22,-1.696 -15.4,-1.699 -5.8,-0.051 -11.58,0.656 -17.2,2.097 -4.93,1.242 -9.58,3.414 -13.7,6.403 -3.81,2.781 -6.92,6.41 -9.1,10.597 -2.33,4.692 -3.53,9.864 -3.5,15.102 h 21.7 l -0.7,-0.301"
         style="fill:#454749;fill-opacity:1;fill-rule:nonzero;stroke:none"
         transform="matrix(0.13333333,0,0,-0.13333333,0,57)" />
      <path
         id="path20"
         d="m 165.75,140.648 136,90.602 v 108.801 h -136 V 140.648"
         style="fill:#ca2a24;fill-opacity:1;fill-rule:nonzero;stroke:none"
         transform="matrix(0.13333333,0,0,-0.13333333,0,57)" />
      <path
         id="path21"
         d="m 301.75,140.648 -136,90.602 v 108.801 h 136 V 140.648"
         style="fill:#ef2c46;fill-opacity:1;fill-rule:nonzero;stroke:none"
         transform="matrix(0.13333333,0,0,-0.13333333,0,57)" />
      <path
         id="path22"
         d="m 233.75,100.449 c -62.574,0 -113.301,50.727 -113.301,113.301 0,62.574 50.727,113.301 113.301,113.301 62.574,0 113.301,-50.727 113.301,-113.301 0,-62.574 -50.727,-113.301 -113.301,-113.301 z m 0,263.301 c -82.844,0 -150,-67.156 -150,-150 0,-82.844 67.156,-150 150,-150 82.844,0 150,67.156 150,150 0,82.844 -67.156,150 -150,150"
         style="fill:#52b9c8;fill-opacity:1;fill-rule:nonzero;stroke:none"
         transform="matrix(0.13333333,0,0,-0.13333333,0,57)" />
      <path
         id="path23"
         d="M 316.852,137.051 C 274.605,91.0391 203.059,87.9844 157.047,130.227 c -34.711,31.871 -46.024,81.921 -28.399,125.625 l -31.398,20 C 63.2266,200.316 96.8789,111.504 172.414,77.4805 233.348,50.0352 305.09,66.2109 348.352,117.148 l -31.5,19.903"
         style="fill:#fbbf27;fill-opacity:1;fill-rule:nonzero;stroke:none"
         transform="matrix(0.13333333,0,0,-0.13333333,0,57)" />
    </g>
  </g>
</svg>
